# xmcd
# 
# Track frame offsets:
#     150
#     14557
#     30425
#     48859
#     70939
#     108875
#     135805
#     161004
#     178689
#     204674
# 
# Disc length: 3838
# 
# Revision: 0
# Processed by: cddbd v1.5.2PL0 Copyright (c) Steve Scherf et al.
# Submitted via: fre:ac v1.1beta1pre4
# 
DISCID=7b0efc0a
DTITLE=Mulebone - Mulebone Live - Made In The Mitten
DYEAR=2018
DGENRE=Blues
TTITLE0=Million Miles From Nowhere
TTITLE1=Toe That Line
TTITLE2=You Don't Love Me
TTITLE3=Room To Move
TTITLE4=How Many More Years
TTITLE5=Keep On Moving
TTITLE6=She Wants My Name
TTITLE7=Voodoo Chile
TTITLE8=Long Black Veil
TTITLE9=Jesus On The Mainline
EXTD=
EXTT0=
EXTT1=
EXTT2=
EXTT3=
EXTT4=
EXTT5=
EXTT6=
EXTT7=
EXTT8=
EXTT9=
PLAYORDER=
